<svg xmlns="http://www.w3.org/2000/svg" width="65.028" height="74.09" viewBox="0 0 65.028 74.09"><g transform="translate(0 0)"><path d="M469.564,353.446a14.023,14.023,0,0,0-2.07.226,13.234,13.234,0,0,0-6.09,2.713,7.247,7.247,0,0,0-2.185,3.994,28.087,28.087,0,0,0-.834,5.522,74.95,74.95,0,0,0,.583,10.506c.055.523.075.719.136,1.241A94.123,94.123,0,0,1,474.1,375.43c-.01-.09-.035-.52-.045-.61-.216-2.331-.543-4.261-.753-6.592a29.1,29.1,0,0,1,.06-7.09,11.983,11.983,0,0,1,1.14-3.567,9.062,9.062,0,0,1,.623-1.01,3.109,3.109,0,0,0,.628-1.573C475.98,352.843,470.5,353.416,469.564,353.446Z" transform="translate(-436.021 -353.355)" fill="#fff"/><path d="M451.994,445.06a33.68,33.68,0,0,0-1.055-4.87c-.445-1.425-.993-3.173-2.22-4.128-1.909-1.486-4.434-1.994-6.773-2.367-.789-.126-1.588-.226-2.386-.3-1.72-.162-3.428-.379-5.155-.467-1.923-.1-3.858-.14-5.783-.186-.819-.015-1.628-.02-2.442-.01a67.7,67.7,0,0,0-8.858.613,76.573,76.573,0,0,0-9.974,2.01c-.015,0-.025,0-.04.01-.111.03-.623.181-1,.316-.422.151-.854.286-1.291.4a25.942,25.942,0,0,0-4.864,1.854,27.4,27.4,0,0,0-3.517,1.974,23.487,23.487,0,0,0-3.055,2.286,20.724,20.724,0,0,0-1.965,2.331,18.489,18.489,0,0,0-1.794,2.522,14.031,14.031,0,0,0-1.9,5.818,12.547,12.547,0,0,0-.015,1.945,13.393,13.393,0,0,0,7.175,10.366,17.477,17.477,0,0,0,8.08,2.01,24.614,24.614,0,0,0,5.165-.482q.822-.075,1.628-.211c.814-.136,1.628-.311,2.427-.518a10.093,10.093,0,0,0,1.332-.271,11.126,11.126,0,0,0,1.814-.7,20.581,20.581,0,0,0,2-.7,12.165,12.165,0,0,0,2.542-1.422c.02.015,0,0,.02.015a15.8,15.8,0,0,0-1.307,8.853,11.416,11.416,0,0,0,4.633,7.738c3.03,2.125,6.873,2.492,10.446,1.939a25.5,25.5,0,0,0,10.164-4.085,15.448,15.448,0,0,0,2.131-1.7,1.045,1.045,0,0,0,.236-.141c3.939-3.467,5.466-8.712,6.135-13.742A59.236,59.236,0,0,0,451.994,445.06Zm-39.817,6.491a31.724,31.724,0,0,1-.841,5.5,27.493,27.493,0,0,1-.818,2.643q-.067.173-.117.346a8.3,8.3,0,0,1-1.163,2.457c-.045.065-.095.125-.139.191-.117-.02-.234-.03-.351-.05-.072-.01-.106-.02-.123-.02s-.044-.01-.122-.035c-.2-.045-.406-.09-.618-.15-.406-.111-.812-.246-1.208-.392a9.654,9.654,0,0,1-2-1.01c-.328-.206-.646-.432-.946-.658-.078-.06-.106-.075-.111-.08a.994.994,0,0,0-.094-.085c-.167-.156-.345-.312-.512-.472a7.02,7.02,0,0,1-1.38-1.768,10.907,10.907,0,0,1-.534-9.461,16.264,16.264,0,0,1,6.9-7.727,29.553,29.553,0,0,1,3.7-1.929A65.138,65.138,0,0,1,412.177,451.552Zm12.856,5.085a17.028,17.028,0,0,0,.9-3.452,59.487,59.487,0,0,0,.533-7.622q.113-3.979-.025-7.954c-.01-.261-.025-.512-.035-.763.623.015,1.246.045,1.869.075,2.07.115,4.125.316,6.185.507l.73.061a1.906,1.906,0,0,1,1.647,1.259l0,.011c.292.849.568,1.7.859,2.553a46.686,46.686,0,0,1,1.417,5.06c.261,1.146.472,2.3.653,3.462-.98.266-1.95.548-2.914.854A38.949,38.949,0,0,0,427,455.17,23.157,23.157,0,0,0,425.033,456.637Zm11.175,16.614a14.45,14.45,0,0,1-3,3.6,11.864,11.864,0,0,1-1.692,1.21c-.32.2-.577.394-.849.588l-.027-.006a1.454,1.454,0,0,0-.053-.165,14.659,14.659,0,0,1-1.4-6.609,15.668,15.668,0,0,1,1.954-6.706,19.023,19.023,0,0,1,9.151-7.939C440.073,462.857,439.086,468.571,436.208,473.25Z" transform="translate(-387.877 -407.567)" fill="#fff"/><path d="M541.642,385.76c0,8.347-12.52,8.347-12.52,0S541.642,377.414,541.642,385.76Z" transform="translate(-484.352 -371.213)" fill="#3faaff"/></g></svg>